PathFileType	3	(X/Y/Z)	C:\Users\koon_\Desktop\
DataRate	CameraRate	NumFrames	NumMarkers	Units	OrigDataRate	OrigDataStartFrame	OrigNumFrames
100.0	100.0	10	27	mm	100.0	1257	2010	
Frame#	Time	get:LFHD			get:RFHD			get:LBHD			get:RBHD			get:C7			get:T10			get:CLAV			get:STRN			get:RBAK			get:LSHO			get:LUPA			get:LELB			get:LFRA			get:LWRA			get:LWRB			get:LFIN			get:RSHO			get:RUPA			get:RELB			get:RFRA			get:RWRA			get:RWRB			get:RFIN			get:LASI			get:RASI			get:LPSI			get:RPSI			
		X1	Y1	Z1	X2	Y2	Z2	X3	Y3	Z3	X4	Y4	Z4	X5	Y5	Z5	X6	Y6	Z6	X7	Y7	Z7	X8	Y8	Z8	X9	Y9	Z9	X10	Y10	Z10	X11	Y11	Z11	X12	Y12	Z12	X13	Y13	Z13	X14	Y14	Z14	X15	Y15	Z15	X16	Y16	Z16	X17	Y17	Z17	X18	Y18	Z18	X19	Y19	Z19	X20	Y20	Z20	X21	Y21	Z21	X22	Y22	Z22	X23	Y23	Z23	X24	Y24	Z24	X25	Y25	Z25	X26	Y26	Z26	X27	Y27	Z27	
1257	12.56	87.558823	1754.373	-84.094948	-68.465073	1736.5386	-80.932678	81.714127	1734.7589	-207.21422	-44.659931	1728.8538	-226.14388	22.270586	1555.2836	-228.83205	24.124226	1305.7957	-260.91837	31.159641	1510.2255	-40.813698	48.920635	1319.4847	-2.1482182	-62.265724	1484.5072	-258.70758	185.65349	1552.6993	-156.81577	284.16882	1445.8997	-193.23407	359.1188	1317.5927	-283.85019	395.33932	1197.2981	-268.33377	418.72589	1114.8535	-319.4263	471.34247	1158.6139	-330.57855	505.12903	1073.0972	-338.20966	-118.82015	1551.632	-151.17007	-300.68295	1435.8973	-104.47339	-371.86182	1359.5931	-120.06381	-376.45084	1440.8301	-61.447113	-446.96927	1520.562	31.276018	-503.19153	1480.5562	10.619963	-511.29193	1564.0509	19.362696	157.28784	1112.3086	-96.971954	-115.01646	1093.2329	-105.05637	75.432312	1157.2638	-294.89069	-33.527599	1143.0869	-296.60635
1258	12.57	88.13089	1761.2584	-85.067818	-67.769653	1742.9117	-81.87175	82.273689	1741.6119	-208.2377	-44.284256	1734.078	-224.24493	23.976282	1559.6173	-229.03975	24.127867	1311.5844	-262.79938	31.956591	1514.7986	-41.268356	48.346462	1324.4512	-3.0101893	-62.043911	1489.8607	-260.20181	186.33507	1558.3158	-156.64296	285.87314	1452.7817	-192.16754	360.66049	1328.2057	-286.83374	396.62201	1207.4341	-276.72421	421.02332	1127.3707	-331.67584	473.40149	1172.0104	-339.99051	508.02563	1086.9915	-353.60147	-116.13621	1557.8115	-153.03343	-300.47003	1449.2144	-103.86797	-373.46732	1375.1069	-117.04956	-376.62036	1458.9871	-62.573322	-447.36771	1544.1899	24.158535	-504.13638	1504.4165	4.7590375	-510.68509	1588.3322	9.5791521	156.87503	1119.116	-97.722427	-115.61522	1099.4731	-106.524	74.185287	1161.8463	-297.08643	-34.557976	1147.0701	-298.71423
1259	12.58	88.88253	1767.0525	-85.796745	-67.03363	1748.3356	-82.492424	82.927284	1747.8285	-208.96948	-43.658386	1740.1454	-224.97517	25.24272	1563.5819	-228.42953	23.903938	1316.7177	-264.41867	32.395374	1517.9324	-41.60886	47.710609	1328.0032	-4.4852471	-62.394508	1495.541	-261.06323	187.0441	1563.1718	-156.3273	286.73904	1458.5668	-191.01018	361.70496	1337.8406	-289.52243	396.7955	1216.426	-285.66867	422.52261	1138.7794	-343.22833	474.79861	1184.1136	-348.83151	510.17105	1099.8987	-368.67892	-113.78933	1562.8738	-154.73119	-299.53473	1461.4857	-103.73473	-374.27902	1389.4932	-115.0895	-376.23315	1475.6439	-63.811241	-447.18787	1565.8184	17.221455	-504.3584	1526.2931	-1.0493808	-509.8139	1610.4834	-0.93641502	156.75674	1124.8755	-98.488503	-116.18334	1104.4337	-107.79709	72.805946	1164.9553	-299.05972	-34.934395	1149.0912	-300.03983
1260	12.59	89.69239	1771.8287	-86.368477	-66.253822	1752.8696	-82.970169	83.657326	1753.5293	-209.57115	-42.97657	1746.1427	-226.71591	25.332766	1567.1035	-227.73906	23.577824	1321.2552	-265.89502	32.543552	1520.0626	-41.767765	47.174534	1330.0549	-5.4337134	-62.248703	1501.6073	-261.08755	187.4463	1567.4701	-155.78487	286.85504	1463.4426	-190.71042	362.33411	1346.2688	-292.38635	396.70969	1224.756	-293.49249	423.19461	1149.0724	-354.00848	475.57932	1194.7346	-357.1741	511.50357	1111.6633	-383.19669	-111.62292	1566.8252	-156.27399	-298.27429	1472.5607	-104.24693	-374.6915	1402.235	-113.48278	-375.58444	1490.6571	-65.264595	-446.4646	1585.5624	10.222692	-503.84839	1545.6908	-6.3956103	-508.53812	1628.9409	-8.7052755	156.81616	1129.3977	-99.091225	-116.68929	1108.1407	-108.86916	71.618889	1166.3832	-299.92233	-35.740318	1150.1669	-301.96295
1261	12.6	90.48484	1775.5929	-86.669815	-65.497543	1756.5409	-83.255295	84.259827	1758.5493	-210.0616	-42.392849	1750.9221	-225.84134	24.7274	1570.7592	-227.47632	23.313745	1325.4592	-267.25119	32.513096	1521.3571	-42.056889	46.820835	1331.3206	-6.8717966	-61.521942	1507.502	-260.83456	187.49355	1571.244	-154.99185	286.51184	1467.6133	-191.36969	362.64618	1353.7356	-295.86938	396.0238	1231.9789	-301.14606	423.25974	1158.231	-364.20798	475.66391	1203.8419	-365.20258	512.01343	1122.2609	-397.10455	-109.68198	1569.7924	-157.05148	-296.8808	1482.4148	-105.59821	-374.94482	1413.5341	-112.3704	-374.92197	1503.7168	-67.54203	-445.10934	1603.2107	3.2103357	-502.73721	1563.4857	-11.940318	-506.42264	1647.0128	-20.707336	157.0226	1132.6696	-99.479263	-117.19666	1110.6288	-109.77507	70.362488	1167.6792	-301.64606	-36.356831	1150.1255	-304.06396
1262	12.61	91.231781	1778.374	-86.851967	-64.666092	1759.3057	-83.373558	84.862236	1762.7827	-210.38765	-41.936481	1756.1222	-227.92992	25.390024	1575.2104	-228.15915	23.041529	1328.8379	-268.44119	32.579075	1521.7289	-42.484634	46.566975	1331.754	-8.2952566	-60.907837	1512.1639	-260.43607	187.39879	1574.4607	-154.38129	285.95682	1471.2635	-193.09938	362.67749	1360.0991	-299.8486	394.91248	1238.229	-308.61319	422.60397	1166.2212	-374.17068	475.15518	1211.6951	-373.02167	511.62833	1131.634	-410.26904	-108.1008	1572.1632	-157.19479	-295.72574	1490.8621	-107.17197	-375.03564	1423.2393	-111.58632	-374.1741	1515.0084	-70.179245	-443.12363	1618.8821	-4.0507436	-501.00876	1579.1646	-17.351376	-503.92694	1661.3328	-29.455757	157.19968	1134.7246	-99.597328	-117.86578	1111.9968	-110.53897	69.19825	1167.6688	-301.17972	-36.363312	1150.0973	-304.73349
1263	12.62	91.83297	1780.2002	-86.882225	-63.921944	1760.9681	-83.68399	85.32888	1766.152	-210.56332	-41.444336	1758.8954	-226.13985	26.152418	1579.2024	-229.1797	22.868196	1330.6003	-269.56445	32.90097	1521.3207	-42.993484	46.527931	1331.349	-9.5170736	-60.88504	1514.8623	-261.2652	187.24428	1576.9431	-154.47012	285.50616	1474.4979	-195.7235	362.48141	1365.4131	-304.26996	393.57028	1243.4672	-316.20135	421.40152	1173.1329	-383.90363	474.18542	1218.3478	-380.91092	510.54651	1139.96	-422.62363	-106.38219	1574.0493	-156.75194	-294.80981	1498.0601	-109.09712	-375.1405	1431.4241	-111.23512	-373.1683	1524.6154	-73.106194	-440.46732	1632.3392	-11.377602	-498.8317	1592.906	-22.879719	-500.76981	1673.8003	-37.821117	157.30838	1135.67	-99.46257	-118.5369	1112.4001	-111.15045	68.314079	1166.0277	-300.24167	-36.11237	1148.5618	-304.42993
1264	12.63	92.423759	1781.0197	-86.853813	-63.513046	1761.9028	-83.445473	85.6661	1768.5481	-210.69429	-41.093994	1761.5195	-226.09833	26.289177	1581.6982	-230.50734	22.535688	1330.6364	-270.82294	33.458492	1520.1091	-43.527802	46.630547	1330.2822	-10.492571	-61.252346	1516.7617	-262.08813	187.03279	1578.6115	-155.47047	285.28012	1477.4139	-199.30048	362.03174	1369.636	-309.19592	392.07297	1247.7595	-323.7475	419.73273	1178.9733	-393.51309	472.81418	1223.8354	-389.02579	508.76242	1146.7811	-434.50415	-104.7665	1575.2336	-156.45467	-294.0896	1504.1013	-111.37984	-375.28537	1437.9559	-110.88554	-371.97321	1532.4807	-76.441582	-437.2196	1643.7122	-18.688229	-496.12711	1604.8802	-28.649218	-497.08798	1685.0236	-46.688461	157.30644	1135.3817	-99.188538	-119.16731	1111.9398	-111.68688	67.617683	1163.3822	-299.62122	-36.152283	1146.7383	-305.91132
1265	12.64	92.888512	1780.8772	-86.74395	-63.041134	1761.7644	-83.385628	85.918251	1769.9332	-210.73367	-40.964622	1763.9025	-227.84496	26.195168	1582.3633	-231.97794	21.989498	1329.1694	-272.13901	33.984409	1518.2656	-44.162754	46.825466	1328.6593	-11.162972	-61.663445	1517.5989	-262.80728	186.80356	1579.4741	-156.98994	285.24442	1479.7999	-203.67393	361.28555	1372.7595	-314.48233	390.74863	1251.1299	-331.24347	417.94305	1183.7804	-402.66034	471.18628	1228.356	-397.4068	506.59137	1152.3981	-445.45294	-103.25726	1575.6654	-156.64273	-293.63055	1509.1215	-114.00821	-375.401	1443.1655	-110.71178	-370.62558	1538.6061	-80.067833	-433.56082	1653.1598	-25.90456	-493.08957	1615.1359	-34.529163	-492.99362	1694.71	-54.734161	157.28606	1133.9436	-98.733299	-119.69841	1110.7659	-112.13499	67.7743	1160.2358	-298.93594	-34.80695	1143.8575	-306.35107
1266	12.65	93.165695	1779.7141	-86.650948	-62.736683	1760.5978	-83.334679	86.143555	1770.1841	-210.71426	-40.793312	1763.6202	-225.91438	26.086126	1581.7206	-233.4696	21.543814	1326.8757	-273.0639	34.562206	1515.7859	-45.013432	47.007263	1326.4681	-11.550112	-61.772232	1516.8627	-263.47955	186.45158	1579.4453	-158.7014	285.22354	1481.58	-208.46622	360.20853	1375.1177	-320.17526	389.3862	1253.692	-338.64182	416.01102	1187.4792	-411.31833	469.24905	1231.8717	-405.94135	503.97592	1156.6627	-455.90482	-101.66798	1575.418	-156.91306	-293.41794	1513.011	-116.32071	-375.60843	1447.2609	-111.09784	-369.07092	1543.0729	-83.619835	-429.51089	1660.8303	-32.757523	-489.76535	1623.8409	-40.205402	-488.29205	1703.4652	-62.8997	157.79803	1131.9801	-97.2174	-120.14173	1108.8788	-112.55392	69.114304	1157.1439	-298.12537	-33.014088	1141.038	-306.06345
